<svg xmlns="http://www.w3.org/2000/svg" xmlns:xlink="http://www.w3.org/1999/xlink" viewBox="0 0 500 500"><defs><style>.a{clip-path:url(#b);}.b{fill:#c90035;}</style><clipPath id="b"><rect width="500" height="500"/></clipPath></defs><g id="a" class="a"><path class="b" d="M242.752,0,202.36,75.346c-4.583,8.189-12.8,7.429-21.007,2.856L152.11,63.057l21.8,115.73c4.583,21.143-10.122,21.143-17.379,12l-51.034-57.139-8.285,29.016c-.955,3.811-5.156,7.813-11.459,6.86l-64.533-13.57,16.95,61.632C41.794,231.3,44.624,236.979,34.5,240.6l-23,10.813,111.09,90.247a14.548,14.548,0,0,1,5.053,15.113l-9.723,31.911c38.25-4.41,72.523-11.044,110.792-15.13,3.378-.361,9.034,5.215,9.011,9.131l-5.068,116.91h18.6l-2.927-116.659c-.023-3.916,5.108-9.742,8.486-9.382,38.269,4.086,72.542,10.72,110.792,15.13l-9.723-31.911a14.548,14.548,0,0,1,5.053-15.113l111.09-90.247-23-10.812c-10.122-3.617-7.292-9.295-3.663-23.009l16.95-61.632-64.533,13.57c-6.3.953-10.5-3.049-11.459-6.86l-8.285-29.017L329,190.788c-7.257,9.142-21.963,9.142-17.379-12l21.8-115.73L304.17,78.2c-8.212,4.574-16.424,5.333-21.007-2.856" transform="translate(7.585 0.41)"/></g></svg>